<svg width="101" height="94" viewBox="0 0 101 94" fill="none" xmlns="http://www.w3.org/2000/svg">
<path fill-rule="evenodd" clip-rule="evenodd" d="M7.00978 70.844C-1.68588 56.5218 -1.68588 37.0844 7.00978 22.7621C25.5946 -7.58738 75.3815 -7.58738 93.9663 22.7621C102.662 37.0844 102.662 56.5218 93.9663 70.844C75.3815 101.194 25.4241 101.194 7.00978 70.844Z" fill="url(#paint0_linear_1_7)"/>
<path fill-rule="evenodd" clip-rule="evenodd" d="M68.7307 25.8313C73.5047 27.1953 77.0853 30.9464 78.4493 35.55C80.1544 39.983 80.1544 53.7937 78.4493 58.2268C77.0853 63.0009 73.3342 66.5815 68.7307 67.9455C64.2976 69.6505 36.676 69.6505 32.243 67.9455C27.4689 66.5815 23.8884 62.8304 22.5244 58.2268C20.8193 53.7937 20.8193 39.983 22.5244 35.55C23.8884 30.7759 27.6394 27.1953 32.243 25.8313C33.607 25.3198 37.0171 24.9788 41.1091 24.8083L39.4041 20.2047C38.7221 18.4997 39.5747 16.6241 41.2797 15.9421C42.9847 15.2601 44.8603 16.1126 45.5423 17.8176L47.9293 24.4673C49.4638 24.4673 51.1688 24.4673 52.7033 24.4673L55.0904 17.8176C55.7724 16.1126 57.648 15.2601 59.353 15.9421C61.058 16.6241 61.9105 18.4997 61.2285 20.2047L59.5234 24.8083C63.9565 24.9788 67.3666 25.3198 68.7307 25.8313Z" fill="#FFB700"/>
<path fill-rule="evenodd" clip-rule="evenodd" d="M41.7926 37.0843C41.7926 34.3562 45.3732 33.1628 47.7602 34.6973L61.5709 42.8814C63.958 44.2455 64.1285 48.3375 61.7415 49.872L47.7602 59.4202C45.3732 60.9548 41.6221 59.5908 41.6221 56.8627L41.7926 37.0843Z" fill="url(#paint1_linear_1_7)"/>
<defs>
<linearGradient id="paint0_linear_1_7" x1="69.2842" y1="107.46" x2="90.2581" y2="-15.2426" gradientUnits="userSpaceOnUse">
<stop stop-color="#6F00AC"/>
<stop offset="0.2946" stop-color="#7600B1"/>
<stop offset="0.7095" stop-color="#8800BF"/>
<stop offset="1" stop-color="#9900CC"/>
</linearGradient>
<linearGradient id="paint1_linear_1_7" x1="42.2773" y1="58.4175" x2="54.9931" y2="38.3803" gradientUnits="userSpaceOnUse">
<stop stop-color="#6F00AC"/>
<stop offset="0.2946" stop-color="#7600B1"/>
<stop offset="0.7095" stop-color="#8800BF"/>
<stop offset="1" stop-color="#9900CC"/>
</linearGradient>
</defs>
</svg>
