<svg width="114" height="39" viewBox="0 0 114 39" fill="none" xmlns="http://www.w3.org/2000/svg">
<path d="M34.0866 20.7235V30.5375L26.3518 25.0483L34.0866 20.7235Z" fill="white" fill-opacity="0.65"/>
<path d="M18.7039 20.7235V30.5375L26.3555 25.0483L18.7039 20.7235Z" fill="white" fill-opacity="0.65"/>
<path d="M26.3566 10.9096L16.3762 16.482H26.3566V10.9096Z" fill="white" fill-opacity="0.65"/>
<path d="M26.3518 10.9096L36.3322 16.482H26.3518V10.9096Z" fill="white" fill-opacity="0.25"/>
<path d="M26.3584 25.0485L16.4612 32.0348H26.3584V25.0485Z" fill="white" fill-opacity="0.45"/>
<path d="M26.3518 25.0485L36.3322 32.0348H26.3518V25.0485Z" fill="white" fill-opacity="0.35"/>
<path d="M16.4612 32.035H26.3584V38.855L16.4612 32.035Z" fill="white" fill-opacity="0.25"/>
<path d="M36.3322 32.035H26.3518V38.855L36.3322 32.035Z" fill="white" fill-opacity="0.15"/>
<path d="M16.4612 16.4823H26.347V22.0546L16.4612 16.4823Z" fill="white" fill-opacity="0.45"/>
<path d="M36.3322 16.4823H26.3518V22.0546L36.3322 16.4823Z" fill="white" fill-opacity="0.35"/>
<path d="M36.3388 32.035V16.4823L26.3584 22.0546L16.4612 16.4823V32.035L18.7068 33.6152V20.7239L26.3584 25.0488L34.0932 20.7239V33.6152L36.3388 32.035Z" fill="white"/>
<path d="M65.6947 26.3794C66.5264 26.0468 67.275 25.5477 67.8571 24.7992C68.5225 23.9675 68.8552 22.8863 68.8552 21.7219C68.8552 20.9734 68.6888 20.2249 68.4393 19.6427C68.1898 18.9773 67.774 18.4783 67.275 17.9793C66.7759 17.5634 66.1106 17.1476 65.3621 16.8981C64.6135 16.6486 63.7818 16.5654 62.867 16.5654H56.4629V33.6984H58.7085V18.811H62.867C64.1145 18.811 65.0294 19.0605 65.6116 19.5595C66.1938 20.0585 66.5264 20.8071 66.5264 21.7219C66.5264 22.72 66.1938 23.3853 65.6116 23.8843C64.9462 24.3834 64.0313 24.6329 62.867 24.6329H60.1224V26.7953H63.4491L66.6096 33.6152H69.1047L65.6947 26.3794Z" fill="white"/>
<path d="M70.7722 16.6485V18.8109H75.9287V33.6983H78.1743V18.8109H83.3309V16.6485H70.7722Z" fill="white"/>
<path d="M47.1493 16.6485H45.2364L38.666 33.6983H41.0779L43.1572 28.3755H49.3949L51.4742 33.6983H53.8029L47.1493 16.6485ZM43.9057 26.3794L46.2345 20.308L48.5632 26.3794H43.9057Z" fill="white"/>
<path d="M13.0481 27.0447C12.7985 26.4625 12.4659 25.9635 12.05 25.5477C11.6342 25.1318 11.1352 24.7991 10.553 24.4664C9.97078 24.2169 9.30541 23.9674 8.64006 23.8843L5.56278 23.4684C5.2301 23.3852 4.89741 23.3852 4.56473 23.2189C4.31522 23.1357 4.06571 22.9694 3.8162 22.8031C3.64987 22.6367 3.48353 22.3872 3.31719 22.1377C3.23402 21.8882 3.15085 21.5555 3.15085 21.1397C3.15085 20.7238 3.23402 20.308 3.40036 20.0584C3.5667 19.7258 3.81621 19.4763 4.06572 19.2267C4.3984 18.9772 4.81425 18.7277 5.2301 18.5614C5.72911 18.3951 6.22813 18.395 6.72715 18.395C7.39251 18.395 8.05787 18.4782 8.55689 18.7277C9.05591 18.8941 9.47176 19.2267 9.80443 19.5594C10.0539 19.8089 10.2203 20.0584 10.3035 20.3911C10.3866 20.6406 10.553 20.9733 10.553 21.3892L10.6361 21.805H12.8817L12.7985 21.2228C12.7154 20.5575 12.6322 19.9753 12.3827 19.4763C12.1332 18.9772 11.8005 18.5614 11.4678 18.1455C10.9688 17.5634 10.2203 17.0643 9.38859 16.7317C8.55689 16.399 7.64202 16.2326 6.72715 16.2326C5.89545 16.2326 5.14693 16.399 4.3984 16.6485C3.64987 16.898 2.98451 17.3138 2.40232 17.8129C1.98647 18.2287 1.57062 18.7277 1.23794 19.2267C0.905263 19.8089 0.738924 20.4743 0.738924 21.2228C0.738924 21.8882 0.822095 22.5535 1.0716 23.0526C1.32111 23.5516 1.65379 24.0506 2.06964 24.4664C2.48549 24.8823 2.98451 25.1318 3.48353 25.3813C3.98255 25.6308 4.56474 25.714 5.2301 25.7972L8.22421 26.213C8.64006 26.2962 9.05591 26.3794 9.38859 26.5457C9.72126 26.712 9.97077 26.8784 10.2203 27.1279C10.4698 27.3774 10.6361 27.6269 10.7193 27.8764C10.8025 28.1259 10.8856 28.4586 10.8856 28.7913C10.8856 29.2071 10.8025 29.623 10.6361 29.8725C10.4698 30.2052 10.3034 30.4547 10.0539 30.7042C9.63809 31.0369 9.22224 31.2864 8.64006 31.4527C8.05787 31.6191 7.39251 31.7022 6.72715 31.7022C6.14496 31.7022 5.4796 31.619 4.98058 31.3695C4.39839 31.2032 3.98255 30.8705 3.5667 30.5378C3.31719 30.2883 3.06768 29.9557 2.90134 29.5398C2.735 29.2071 2.56866 28.7913 2.56866 28.3754L2.48549 27.8764H0.156738L0.239907 28.4586C0.323077 29.124 0.489415 29.7893 0.738924 30.3715C0.988434 30.9537 1.40429 31.4527 1.82013 31.9517C2.40232 32.6171 3.15085 33.0329 3.98255 33.3656C4.81425 33.6983 5.72911 33.8646 6.72715 33.8646C7.72519 33.8646 8.64006 33.6983 9.47175 33.4488C10.3035 33.1993 11.052 32.7003 11.6342 32.1181C12.05 31.7022 12.3827 31.2032 12.6322 30.7042C12.8817 30.122 13.0481 29.4566 13.0481 28.7081C13.3807 28.2091 13.2976 27.6269 13.0481 27.0447Z" fill="white"/>
<path d="M105.453 33.7815H106.95L113.521 16.5654H111.774L106.202 31.3696L100.463 16.5654H87.9043V18.1456H93.3103V33.7815H94.8906V18.1456H99.3817L105.453 33.7815Z" fill="white"/>
<path d="M34.0866 20.7239V33.6152L36.3322 32.035V16.4823L26.3518 22.0546V25.0488L34.0866 20.7239Z" fill="white"/>
<path d="M68.8591 5.05759C67.7779 4.72491 67.5284 3.81004 67.5284 3.06152V2.81201C67.5284 1.39812 68.2769 0.649597 69.8572 0.649597H70.6057C71.8532 0.649597 72.6018 1.14861 72.6018 2.47933C72.6018 2.81201 72.4354 3.06152 72.0196 3.06152C71.6037 3.06152 71.4374 2.81201 71.4374 2.47933C71.4374 1.98031 71.1047 1.7308 70.6057 1.7308H69.8572C69.0255 1.7308 68.6096 2.06348 68.6096 2.81201V3.06152C68.6096 3.56054 68.9423 3.89322 69.275 3.97639L71.4374 4.80809C72.3522 5.14077 72.8513 5.80612 72.8513 6.88733V7.30318C72.8513 8.71707 72.1027 9.54876 70.5225 9.54876H69.3581C68.1106 9.54876 67.3621 9.04975 67.3621 7.71903C67.3621 7.38635 67.5284 7.13684 67.9442 7.13684C68.3601 7.13684 68.5264 7.38635 68.5264 7.71903C68.5264 8.21805 68.8591 8.46755 69.3581 8.46755H70.6057C71.4374 8.46755 71.8532 8.05171 71.8532 7.30318V6.88733C71.8532 6.38831 71.6037 6.05563 71.271 5.88929L68.8591 5.05759Z" fill="white"/>
<path d="M76.9178 3.06128C78.1653 3.06128 78.9139 3.80981 78.9139 4.97419V8.88317C78.9139 9.21584 78.7475 9.46536 78.3317 9.46536H76.0861C74.9217 9.46536 74.2563 8.96634 74.2563 7.80196V6.8871C74.2563 5.72272 75.0049 5.2237 76.0861 5.2237H77.8326V4.97419C77.8326 4.392 77.5 4.14249 77.001 4.14249H75.4207C75.088 4.14249 74.8385 3.97615 74.8385 3.64347C74.8385 3.31079 75.088 3.14445 75.4207 3.14445H76.9178V3.06128ZM77.7495 8.38415V6.22173H76.0029C75.5039 6.22173 75.2544 6.47125 75.2544 6.8871V7.80196C75.2544 8.13464 75.5039 8.46732 76.0029 8.46732H77.7495V8.38415Z" fill="white"/>
<path d="M86.5734 5.30687C86.5734 4.55834 86.2408 4.14249 85.4091 4.14249H84.7437V9.04951C84.7437 9.38219 84.5774 9.63169 84.1615 9.63169C83.7457 9.63169 83.5793 9.38219 83.5793 9.04951V4.14249H81.7496V9.04951C81.7496 9.38219 81.5832 9.63169 81.1674 9.63169C80.7515 9.63169 80.5852 9.38219 80.5852 9.04951V3.64347C80.5852 3.31079 80.7515 3.06128 81.1674 3.06128H85.4091C86.9061 3.06128 87.6546 3.89298 87.6546 5.30687V9.04951C87.6546 9.38219 87.4883 9.63169 87.0724 9.63169C86.6566 9.63169 86.4903 9.38219 86.4903 9.04951V5.30687H86.5734Z" fill="white"/>
<path d="M91.0604 9.54906C89.8961 9.54906 89.2307 9.13321 89.2307 8.052C89.2307 7.71932 89.397 7.46982 89.8129 7.46982C90.2287 7.46982 90.3119 7.71932 90.3951 8.052C90.3951 8.30151 90.6446 8.55103 91.1436 8.55103H92.1417C92.7238 8.55103 92.8902 8.21834 92.8902 7.88566V7.46982C92.8902 7.13714 92.7238 7.05397 92.4743 6.88763L90.5614 6.38861C89.8129 6.1391 89.4802 5.64008 89.4802 4.89155V4.55887C89.4802 3.3945 90.1456 2.89548 91.31 2.89548H91.9753C93.1397 2.89548 93.8051 3.31133 93.8051 4.39254C93.8051 4.72522 93.7219 4.97472 93.2229 4.97472C92.807 4.97472 92.7238 4.72522 92.6407 4.39254C92.6407 4.14303 92.3912 3.89351 91.9753 3.89351H91.31C90.7278 3.89351 90.5614 4.22619 90.5614 4.55887V4.89155C90.5614 5.14106 90.7278 5.3074 90.9773 5.47374L92.8902 5.97276C93.6387 6.22227 94.0546 6.63812 94.0546 7.46982V7.88566C94.0546 9.05004 93.3892 9.54906 92.2248 9.54906H91.0604Z" fill="white"/>
<path d="M96.469 7.2203C96.469 7.96883 96.8017 8.38468 97.6334 8.38468H99.1304V3.47766C99.1304 3.14498 99.2968 2.89548 99.7126 2.89548C100.128 2.89548 100.295 3.14498 100.295 3.47766V8.8837C100.295 9.21638 100.128 9.46589 99.7126 9.46589H97.7165C96.1363 9.46589 95.4709 8.63419 95.4709 7.2203V3.47766C95.4709 3.14498 95.6373 2.89548 96.0531 2.89548C96.469 2.89548 96.6353 3.14498 96.6353 3.47766V7.2203H96.469Z" fill="white"/>
<path d="M105.781 5.30687C105.781 4.55834 105.448 4.14249 104.617 4.14249H103.119V9.04951C103.119 9.38219 102.953 9.63169 102.537 9.63169C102.121 9.63169 101.955 9.38219 101.955 9.04951V3.64347C101.955 3.31079 102.121 3.06128 102.537 3.06128H104.533C106.03 3.06128 106.779 3.89298 106.779 5.30687V9.04951C106.779 9.38219 106.613 9.63169 106.197 9.63169C105.781 9.63169 105.615 9.38219 105.615 9.04951V5.30687H105.781Z" fill="white"/>
<path d="M113.353 10.1309C113.353 11.4616 112.605 12.5428 111.025 12.5428H109.694C109.444 12.5428 109.112 12.3765 109.112 12.0438C109.112 11.7111 109.361 11.5448 109.694 11.5448H111.108C111.94 11.5448 112.355 10.9626 112.355 10.2141V9.54869H110.858C109.361 9.54869 108.613 8.717 108.613 7.30311V5.55654C108.613 4.14266 109.361 3.14462 110.942 3.14462H112.938C113.353 3.14462 113.52 3.39413 113.52 3.72681V10.1309H113.353ZM110.858 4.05949C110.027 4.05949 109.694 4.64168 109.694 5.3902V7.13677C109.694 7.8853 110.027 8.30115 110.858 8.30115H112.355V4.05949H110.858Z" fill="white"/>
</svg>
