<svg width="121" height="21" viewBox="0 0 121 21" fill="none" xmlns="http://www.w3.org/2000/svg">
<mask id="mask0_1_44" style="mask-type:luminance" maskUnits="userSpaceOnUse" x="0" y="0" width="121" height="21">
<path d="M0.50293 21H120.505V0.504423H0.50293V21Z" fill="white"/>
</mask>
<g mask="url(#mask0_1_44)">
<path d="M8.27126 17.4772C6.02162 17.4772 4.2014 15.5968 4.2014 13.2588C4.2014 10.965 6.02162 9.05657 8.27126 9.05657C9.76634 9.05657 11.2614 9.75294 11.8976 11.0253C11.9417 11.1136 12 11.232 12 11.3805V15.1091C12 15.1834 11.9557 15.3459 11.9256 15.3901C11.2313 16.6624 9.81048 17.4772 8.27126 17.4772ZM15.6563 20.6881V5.88981H12V7.13204C10.9785 6.14067 9.58778 5.5948 7.87195 5.5948C3.68373 5.5948 0.50293 8.99836 0.50293 13.2588C0.50293 17.5374 3.68373 20.9851 7.87195 20.9851C9.58778 20.9851 10.9785 20.4071 12 19.4158V20.6881H15.6563ZM31.5342 20.6881V12.6829C31.5342 8.7455 28.4719 5.5948 24.5646 5.5948C20.6433 5.5948 17.5949 8.7455 17.5949 12.6829V20.6881H21.2493V12.6829C21.2493 10.7443 22.612 9.26327 24.5646 9.26327C26.5032 9.26327 27.8798 10.7443 27.8798 12.6829V20.6881H31.5342ZM40.8279 17.4772C38.5782 17.4772 36.758 15.5968 36.758 13.2588C36.758 10.965 38.5782 9.05657 40.8279 9.05657C42.323 9.05657 43.7438 9.79709 44.4542 11.0253C44.4984 11.1136 44.5565 11.232 44.5565 11.3805V15.1252C44.5565 15.1994 44.5123 15.3459 44.4842 15.3901C43.7878 16.6624 42.3671 17.4772 40.8279 17.4772ZM48.2129 20.6881V1.45072H44.5565V7.13204C43.537 6.14067 42.1443 5.54866 40.4284 5.54866C36.2402 5.54866 33.0594 8.99836 33.0594 13.2588C33.0594 17.5374 36.2402 20.9851 40.4284 20.9851C42.1443 20.9851 43.537 20.4071 44.5565 19.4158V20.6881H48.2129ZM53.8059 20.6881V12.7852C53.8059 10.4473 55.034 9.20506 57.372 9.20506V5.5948C52.666 5.5948 50.1515 8.09531 50.1515 12.7852V20.6881H53.8059ZM65.3632 17.3006C63.1437 17.3006 61.3396 15.4944 61.3396 13.2588C61.3396 11.0393 63.1437 9.23519 65.3632 9.23519C67.6129 9.23519 69.4049 11.0393 69.4049 13.2588C69.4049 15.4944 67.6129 17.3006 65.3632 17.3006ZM65.3632 20.9851C69.6418 20.9851 73.1035 17.5374 73.1035 13.2588C73.1035 8.99836 69.6418 5.5948 65.3632 5.5948C61.1028 5.5948 57.639 8.99836 57.639 13.2588C57.639 17.5374 61.1028 20.9851 65.3632 20.9851ZM76.5954 4.766C77.7653 4.766 78.7125 3.80273 78.7125 2.63477C78.7125 1.45074 77.7653 0.503504 76.5954 0.503504C75.4274 0.503504 74.4801 1.45074 74.4801 2.63477C74.4801 3.80273 75.4274 4.766 76.5954 4.766ZM78.4155 5.88981H74.759V20.6881H78.4155V5.88981ZM87.8435 17.4772C85.5939 17.4772 83.7737 15.5968 83.7737 13.2588C83.7737 10.965 85.5939 9.05657 87.8435 9.05657C89.3386 9.05657 90.7575 9.79709 91.4679 11.0253C91.514 11.1136 91.5722 11.232 91.5722 11.3805V15.1392C91.5722 15.2135 91.528 15.3459 91.4979 15.3901C90.8035 16.6624 89.3827 17.4772 87.8435 17.4772ZM95.2266 20.6881V1.45072H91.5722V7.13204C90.5508 6.14067 89.16 5.5948 87.4442 5.5948C83.256 5.5948 80.0731 8.99836 80.0731 13.2588C80.0731 17.5374 83.256 20.9991 87.4442 20.9991C89.16 20.9991 90.5508 20.4071 91.5722 19.4158V20.6881H95.2266Z" fill="white"/>
<path d="M114.493 20.6887L120.501 5.87438H117.483L112.568 18.72H113.59L108.663 5.89045H105.555L111.563 20.6887H114.493ZM104.83 20.8653L104.844 18.2324H104.519C102.374 18.2324 100.863 16.944 100.863 14.7686V8.33274H104.726V5.89045H100.863V1.87881H98.1855V14.7686C98.1855 18.6016 100.672 20.8653 104.519 20.8653H104.83Z" fill="white"/>
</g>
</svg>
