<svg width="131" height="33" viewBox="0 0 131 33" fill="none" xmlns="http://www.w3.org/2000/svg">
<path d="M21.1713 17.1552C21.139 13.305 24.3224 11.4337 24.4622 11.3476C22.6554 8.72347 19.8592 8.3578 18.8805 8.32554C16.5359 8.07818 14.2559 9.73442 13.0621 9.73442C11.8468 9.73442 9.99701 8.3578 8.01813 8.39007C5.46924 8.43309 3.07092 9.9065 1.76959 12.208C-0.929867 16.8864 1.08128 23.7694 3.67319 27.5551C4.97452 29.405 6.48019 31.4806 8.46983 31.4053C10.4057 31.3301 11.137 30.1685 13.4708 30.1685C15.7939 30.1685 16.4714 31.4053 18.4933 31.3623C20.5797 31.3301 21.8811 29.5017 23.1394 27.6304C24.6343 25.5117 25.2366 23.4145 25.2581 23.307C25.2043 23.2855 21.2143 21.7583 21.1713 17.1552Z" fill="white"/>
<path d="M17.3553 5.84112C18.3985 4.53978 19.1083 2.76524 18.9147 0.958435C17.4091 1.02296 15.5162 2.00165 14.43 3.28147C13.4728 4.41073 12.6124 6.2498 12.8275 7.98132C14.5268 8.11038 16.269 7.12094 17.3553 5.84112Z" fill="white"/>
<path d="M49.2577 27.8997H46.5475L45.0633 23.2321H39.901L38.4921 27.8997H35.8572L40.9657 12.0149H44.1276L49.2577 27.8997ZM44.6223 21.2747L43.278 17.1341C43.1382 16.704 42.8693 15.7145 42.4821 14.1443H42.4284C42.267 14.8219 42.0197 15.8221 41.6755 17.1341L40.3527 21.2747H44.6223Z" fill="white"/>
<path d="M62.3943 22.0385C62.3943 23.9851 61.8673 25.5231 60.8026 26.6523C59.8562 27.6633 58.6731 28.158 57.275 28.158C55.7586 28.158 54.6723 27.6203 54.0055 26.534V32.546H51.4567V20.2102C51.4567 18.9842 51.4244 17.7366 51.3599 16.446H53.5969L53.7367 18.2636H53.7797C54.6293 16.8977 55.9199 16.2094 57.6407 16.2094C58.9958 16.2094 60.1143 16.7472 61.0177 17.8119C61.9426 18.8874 62.3943 20.2855 62.3943 22.0385ZM59.8024 22.1246C59.8024 21.0061 59.555 20.0919 59.0495 19.3713C58.5011 18.6185 57.759 18.2421 56.8341 18.2421C56.2103 18.2421 55.6403 18.4572 55.124 18.8658C54.6186 19.2853 54.2744 19.823 54.1238 20.5006C54.0486 20.8125 54.0055 21.0706 54.0055 21.2749V23.1893C54.0055 24.0174 54.2637 24.7272 54.7691 25.2972C55.2746 25.8672 55.9414 26.1576 56.7588 26.1576C57.716 26.1576 58.458 25.7812 58.9958 25.0499C59.5335 24.3078 59.8024 23.3398 59.8024 22.1246Z" fill="white"/>
<path d="M75.5508 22.0385C75.5508 23.9851 75.0238 25.5231 73.9591 26.6523C73.0127 27.6633 71.8296 28.158 70.4315 28.158C68.9151 28.158 67.8288 27.6203 67.162 26.534V32.546H64.6132V20.2102C64.6132 18.9842 64.5809 17.7366 64.5164 16.446H66.7534L66.8932 18.2636H66.9362C67.7858 16.8977 69.0764 16.2094 70.7972 16.2094C72.1523 16.2094 73.2708 16.7472 74.1742 17.8119C75.0991 18.8874 75.5508 20.2855 75.5508 22.0385ZM72.9589 22.1246C72.9589 21.0061 72.7115 20.0919 72.206 19.3713C71.6575 18.6185 70.9155 18.2421 69.9906 18.2421C69.3668 18.2421 68.7968 18.4572 68.2805 18.8658C67.7751 19.2853 67.4417 19.823 67.2803 20.5006C67.2051 20.8125 67.162 21.0706 67.162 21.2749V23.1893C67.162 24.0174 67.4202 24.7272 67.9256 25.2972C68.4311 25.8672 69.0979 26.1576 69.9153 26.1576C70.8724 26.1576 71.6253 25.7812 72.1523 25.0499C72.7008 24.3078 72.9589 23.3398 72.9589 22.1246Z" fill="white"/>
<path d="M90.2884 23.4475C90.2884 24.8026 89.8152 25.8995 88.8795 26.7492C87.8471 27.6741 86.4059 28.1365 84.5561 28.1365C82.8461 28.1365 81.4802 27.8031 80.4478 27.1471L81.0393 25.0284C82.1578 25.6845 83.3838 26.0179 84.7174 26.0179C85.6746 26.0179 86.4274 25.8028 86.9544 25.3726C87.4922 24.9424 87.761 24.3616 87.761 23.641C87.761 22.9958 87.5352 22.458 87.105 22.0171C86.664 21.5761 85.9327 21.1674 84.911 20.791C82.104 19.7478 80.7166 18.2314 80.7166 16.2417C80.7166 14.9404 81.2113 13.8757 82.19 13.0368C83.1687 12.2087 84.4701 11.7892 86.094 11.7892C87.5352 11.7892 88.7397 12.0366 89.6969 12.5421L89.0516 14.607C88.1482 14.123 87.1372 13.8757 85.9972 13.8757C85.1046 13.8757 84.3948 14.1015 83.8893 14.5317C83.4699 14.9296 83.2548 15.4029 83.2548 15.9729C83.2548 16.5966 83.5021 17.1236 83.9861 17.5216C84.4055 17.898 85.1799 18.3067 86.2984 18.7476C87.6642 19.2961 88.6644 19.9414 89.3097 20.6835C89.9658 21.4255 90.2884 22.3505 90.2884 23.4475Z" fill="white"/>
<path d="M98.7186 18.3601H95.9116V23.9203C95.9116 25.3292 96.4063 26.039 97.3958 26.039C97.8475 26.039 98.2239 25.996 98.525 25.9207L98.6003 27.8566C98.0948 28.0394 97.4388 28.1362 96.6214 28.1362C95.6105 28.1362 94.8361 27.8243 94.2661 27.2113C93.6961 26.5983 93.4165 25.5658 93.4165 24.1247V18.3493H91.7495V16.4457H93.4165V14.3485L95.9116 13.5957V16.4457H98.7186V18.3601Z" fill="white"/>
<path d="M111.346 22.0814C111.346 23.8452 110.841 25.2863 109.84 26.4156C108.787 27.5771 107.388 28.1579 105.646 28.1579C103.968 28.1579 102.624 27.5986 101.624 26.4909C100.624 25.3831 100.129 23.9742 100.129 22.275C100.129 20.5004 100.645 19.0485 101.667 17.9193C102.699 16.79 104.087 16.22 105.829 16.22C107.507 16.22 108.862 16.7793 109.884 17.8978C110.862 18.9733 111.346 20.3714 111.346 22.0814ZM108.711 22.1352C108.711 21.0812 108.485 20.1886 108.034 19.4357C107.496 18.5216 106.732 18.0699 105.743 18.0699C104.721 18.0699 103.936 18.5216 103.409 19.4357C102.947 20.1886 102.732 21.1027 102.732 22.1889C102.732 23.2429 102.957 24.1463 103.409 24.8884C103.958 25.8026 104.732 26.2543 105.721 26.2543C106.689 26.2543 107.453 25.7918 108.012 24.8669C108.475 24.0925 108.711 23.1891 108.711 22.1352Z" fill="white"/>
<path d="M119.626 18.683C119.379 18.64 119.11 18.6185 118.819 18.6185C117.927 18.6185 117.228 18.9519 116.744 19.6294C116.324 20.221 116.109 20.9845 116.109 21.8879V27.8999H113.56V20.0489C113.56 18.726 113.539 17.5215 113.485 16.446H115.701L115.797 18.64H115.873C116.142 17.8872 116.561 17.2741 117.142 16.8224C117.712 16.4138 118.325 16.2094 118.981 16.2094C119.217 16.2094 119.433 16.2309 119.615 16.2524L119.626 18.683Z" fill="white"/>
<path d="M131 21.6298C131 22.0815 130.968 22.4687 130.903 22.7805H123.267C123.3 23.9098 123.665 24.7809 124.375 25.3725C125.02 25.8994 125.848 26.1683 126.87 26.1683C127.999 26.1683 129.032 25.9855 129.957 25.6306L130.355 27.3944C129.268 27.8676 127.989 28.1042 126.515 28.1042C124.741 28.1042 123.343 27.5772 122.332 26.534C121.321 25.4908 120.815 24.0819 120.815 22.3288C120.815 20.6081 121.288 19.1669 122.235 18.0162C123.224 16.7901 124.558 16.1771 126.236 16.1771C127.881 16.1771 129.139 16.7901 129.978 18.0162C130.656 19.0056 131 20.1994 131 21.6298ZM128.569 20.9737C128.591 20.2209 128.419 19.5649 128.075 19.0164C127.634 18.3065 126.956 17.9516 126.053 17.9516C125.225 17.9516 124.547 18.2958 124.031 18.9841C123.611 19.5326 123.353 20.1994 123.278 20.963L128.569 20.9737Z" fill="white"/>
</svg>
